<?xml version="1.0" encoding="UTF-8"?>
<svg id="Layer_2" data-name="Layer 2" xmlns="http://www.w3.org/2000/svg" viewBox="0 0 887.68 333.86">
  <defs>
    <style>
      .cls-1 {
        fill: #fff;
        stroke-width: 0px;
      }
    </style>
  </defs>
  <g id="Layer_1-2" data-name="Layer 1">
    <g>
      <g>
        <g>
          <path class="cls-1" d="M272.43,246.11v64.36h-8.46v-50.29l-21.05,35.03-1.04-.04-21.12-35.04v50.34h-8.55v-64.36h9.65l20.59,34.17,20.43-34.17h9.55Z"/>
          <path class="cls-1" d="M322.36,302.38h29.88v8.09h-38.43v-64.36h37.97v8.09h-29.42v19.77h27.12v8h-27.12v20.41Z"/>
          <path class="cls-1" d="M430.85,305.46c-4.47,4.14-10.27,6.21-17.38,6.21s-12.92-2.07-17.42-6.21c-4.51-4.14-6.76-9.67-6.76-16.6v-42.75h8.55v42.39c0,4.54,1.35,8.14,4.05,10.8,2.7,2.67,6.56,4,11.58,4s8.89-1.33,11.59-4c2.7-2.67,4.05-6.27,4.05-10.8v-42.39h8.46v42.75c0,6.93-2.24,12.46-6.71,16.6Z"/>
          <path class="cls-1" d="M514.98,277.09c2.94,1.41,5.29,3.43,7.03,6.07,1.75,2.64,2.62,5.67,2.62,9.1,0,5.15-1.81,9.47-5.42,12.96-3.62,3.49-8.03,5.24-13.24,5.24h-27.77v-64.36h25.74c5.03,0,9.29,1.69,12.78,5.06,3.49,3.37,5.24,7.54,5.24,12.5,0,5.7-2.33,10.18-6.99,13.42ZM503.95,254.1h-17.19v19.68h17.19c2.7,0,4.96-.95,6.8-2.85,1.84-1.9,2.76-4.23,2.76-6.99s-.94-5.01-2.8-6.94c-1.87-1.93-4.12-2.9-6.76-2.9ZM505.97,302.47c2.88,0,5.3-1.01,7.26-3.03,1.96-2.02,2.94-4.51,2.94-7.45s-1-5.33-2.99-7.36-4.4-3.03-7.22-3.03h-19.22v20.87h19.22Z"/>
          <path class="cls-1" d="M570.88,302.38h29.88v8.09h-38.43v-64.36h37.97v8.09h-29.42v19.77h27.12v8h-27.12v20.41Z"/>
          <path class="cls-1" d="M647.2,302.38h27.77v8.09h-36.32v-64.36h8.55v56.27Z"/>
        </g>
        <g>
          <path class="cls-1" d="M146.27,119.24h-1.13c-5.43-21.29-17.21-33.74-33.51-33.74s-26.95,13.59-26.95,38.04c0,31.25,16.08,54.35,41.21,54.35,12.45,0,24-5.66,30.34-14.95l2.72,2.26c-9.06,18.12-25.36,28.76-45.74,28.76-31.48,0-56.61-25.14-56.61-58.88s25.14-58.88,59.55-58.88c13.81,0,27.85,4.08,39.63,11.32l-9.51,31.7Z"/>
          <path class="cls-1" d="M228.7,76.21c33.06,0,58.2,25.14,58.2,58.88s-25.14,58.88-58.2,58.88-58.42-25.14-58.42-58.88,25.14-58.88,58.42-58.88ZM234.81,184.23c14.04,0,23.78-13.13,23.78-37.82,0-31.02-15.4-60.46-36.23-60.46-14.04,0-23.78,13.13-23.78,37.82,0,31.02,15.4,60.46,36.23,60.46Z"/>
          <path class="cls-1" d="M306.14,100.21c0-7.47-1.59-11.55-5.66-14.72v-1.13l32.16-6.34.68.45v13.59c6.79-9.51,18.34-15.85,31.02-15.85,14.04,0,25.14,7.7,29.89,19.47,6.34-11.55,19.25-19.47,33.51-19.47,18.8,0,32.38,13.59,32.38,32.83v66.8c0,7.47,1.59,11.55,5.66,14.72v1.13h-38.5v-1.13c4.08-3.17,5.66-7.25,5.66-14.72v-66.8c0-10.64-6.79-17.89-16.76-17.89-11.32,0-19.47,9.06-19.47,21.29v63.4c0,7.47,1.59,11.55,5.66,14.72v1.13h-38.49v-1.13c4.08-3.17,5.66-7.25,5.66-14.72v-66.8c0-10.64-6.79-17.89-16.76-17.89-11.32,0-19.47,9.06-19.47,21.29v63.4c0,7.47,1.59,11.55,5.66,14.72v1.13h-38.5v-1.13c4.08-3.17,5.66-7.25,5.66-14.72v-75.63Z"/>
          <path class="cls-1" d="M516.73,78.48h21.96v6.79h-21.96v90.58c0,7.47,1.58,11.55,5.66,14.72v1.13h-38.5v-1.13c4.07-3.17,5.66-7.25,5.66-14.72v-90.58h-11.32v-6.79h11.32c0-24.46,17.89-43.02,41.67-43.02,10.87,0,21.74,3.85,30.57,11.32l-14.04,22.64h-1.13c-2.04-16.3-7.02-24.91-14.94-24.91s-14.94,9.06-14.94,33.97Z"/>
          <path class="cls-1" d="M602.69,76.34c32.99-2.21,59.75,21.19,62,54.85s-21.14,60.42-54.13,62.64c-33.21,2.23-59.97-21.17-62.23-54.84-2.26-33.66,21.14-60.42,54.35-62.65ZM616.01,183.7c14.01-.94,22.84-14.7,21.19-39.32-2.07-30.95-19.41-59.3-40.19-57.9-14.01.94-22.84,14.69-21.19,39.32,2.07,30.95,19.41,59.3,40.19,57.9Z"/>
          <path class="cls-1" d="M684.06,100.21c0-7.47-1.58-11.55-5.66-14.72v-1.13l32.16-6.34.68.45v12.45c6.34-9.06,16.76-14.72,28.31-14.72,8.38,0,14.95,2.94,18.57,7.7l-9.51,31.7h-1.13c-1.59-16.3-7.93-25.14-17.89-25.14s-18.34,9.51-18.34,21.97v63.4c0,7.47,1.59,11.55,5.66,14.72v1.13h-38.5v-1.13c4.08-3.17,5.66-7.25,5.66-14.72v-75.63Z"/>
          <path class="cls-1" d="M779.62,167.47v-82.2h-11.32v-6.79h11.32l24.91-21.29h2.27v21.29h20.38v6.79h-20.38v82.2c0,8.15,4.07,13.81,10.19,13.81,5.43,0,9.51-4.53,11.32-12.23h2.26c-.45,14.94-10.87,24.91-25.36,24.91-15.4,0-25.59-11.1-25.59-26.49Z"/>
        </g>
      </g>
      <path class="cls-1" d="M170.28,329.06c-38.23.97-84.84,2.41-123.06,3.62-15.71.5-31.5,1.49-47.22,1.1.1-52.57,1.07-105.14,2.85-157.68.59-16.84,1.26-33.68,2.21-50.52h2.29c.96,16.84,1.62,33.68,2.21,50.52,1.72,50.5,2.67,101.03,2.84,151.56,0,0-6.19-6.19-6.19-6.19,23.72.2,57.96,1.89,82.04,2.43,23.86.89,57.86,1.63,82.04,2.35,0,0,0,2.82,0,2.82h0Z"/>
      <path class="cls-1" d="M717.4,4.78c53.15-1.12,111.04-3.66,164.07-4.78,0,0,6.2.07,6.2.07,0,0-.01,6.12-.01,6.12-.34,62.62-1.56,125.24-5.05,187.78,0,0-2.29,0-2.29,0-.96-15.65-1.62-31.3-2.21-46.94-1.72-46.93-2.67-93.88-2.84-140.83,0,0,6.19,6.19,6.19,6.19-23.72-.19-57.96-1.89-82.04-2.43-23.86-.88-57.86-1.63-82.04-2.35,0,0,0-2.82,0-2.82h0Z"/>
    </g>
  </g>
</svg>